<svg xmlns="http://www.w3.org/2000/svg" width="37" height="37" viewBox="0 0 37 37" fill="none">
  <g clip-path="url(#clip0_33_744)">
    <path d="M30.8333 9.25H24.6667V6.16666C24.6667 4.47083 23.2792 3.08333 21.5833 3.08333H15.4167C13.7208 3.08333 12.3333 4.47083 12.3333 6.16666V9.25H6.16666C4.47083 9.25 3.08333 10.6375 3.08333 12.3333V30.8333C3.08333 32.5292 4.47083 33.9167 6.16666 33.9167H30.8333C32.5292 33.9167 33.9167 32.5292 33.9167 30.8333V12.3333C33.9167 10.6375 32.5292 9.25 30.8333 9.25ZM15.4167 6.16666H21.5833V9.25H15.4167V6.16666ZM30.8333 30.8333H6.16666V12.3333H30.8333V30.8333Z" fill="#03A9F5"/>
    <path d="M20.0417 15.4167H16.9583V20.0417H12.3333V23.125H16.9583V27.75H20.0417V23.125H24.6667V20.0417H20.0417V15.4167Z" fill="#03A9F5"/>
  </g>
  <defs>
    <clipPath id="clip0_33_744">
      <rect width="37" height="37" fill="white"/>
    </clipPath>
  </defs>
</svg>