<svg xmlns="http://www.w3.org/2000/svg" data-name="Layer 1" viewBox="0 0 512 512" id="sun"><g data-name="<Group>"><path fill="#00efd1" d="M484.63 194.73l-86.35 47.98a141.618 141.618 0 0 0-12.39-46.34zM484.63 317.27l-98.74-1.64a141.618 141.618 0 0 0 12.39-46.34zM423.37 88.63l-50.8 84.71a143.284 143.284 0 0 0-33.91-33.91zM372.57 338.66l50.8 84.71-84.71-50.8A143.284 143.284 0 0 0 372.57 338.66z" data-name="<Group>"></path><path fill="#fedb41" d="M398.28,242.71c.41,4.38.61,8.8.61,13.29s-.2,8.91-.61,13.29a142.226,142.226,0,0,1-25.71,69.37,143.327,143.327,0,0,1-56.94,47.23,141.618,141.618,0,0,1-46.34,12.39c-4.38.41-8.8.61-13.29.61s-8.91-.2-13.29-.61a142.226,142.226,0,0,1-69.37-25.71,143.327,143.327,0,0,1-47.23-56.94,141.618,141.618,0,0,1-12.39-46.34c-.41-4.38-.61-8.8-.61-13.29s.2-8.91.61-13.29a142.226,142.226,0,0,1,25.71-69.37,143.327,143.327,0,0,1,56.94-47.23,141.618,141.618,0,0,1,46.34-12.39c4.38-.41,8.8-.61,13.29-.61s8.91.2,13.29.61a142.226,142.226,0,0,1,69.37,25.71,143.327,143.327,0,0,1,47.23,56.94A141.618,141.618,0,0,1,398.28,242.71Z" data-name="<Group>"></path><path fill="#00efd1" d="M317.27 27.37l-1.64 98.74a141.618 141.618 0 0 0-46.34-12.39zM315.63 385.89l1.64 98.74-47.98-86.35A141.618 141.618 0 0 0 315.63 385.89zM194.73 27.37l47.98 86.35a141.618 141.618 0 0 0-46.34 12.39zM242.71 398.28l-47.98 86.35 1.64-98.74A141.618 141.618 0 0 0 242.71 398.28zM88.63 88.63l84.71 50.8a143.284 143.284 0 0 0-33.91 33.91zM173.34 372.57l-84.71 50.8 50.8-84.71A143.284 143.284 0 0 0 173.34 372.57zM27.37 194.73l98.74 1.64a141.618 141.618 0 0 0-12.39 46.34zM126.11 315.63l-98.74 1.64 86.35-47.98A141.618 141.618 0 0 0 126.11 315.63z" data-name="<Group>"></path></g></svg>