<svg xmlns="http://www.w3.org/2000/svg" width="37" height="37" viewBox="0 0 37 37" fill="none">
  <g clip-path="url(#clip0_33_718)">
    <path d="M29.2917 21.5833V9.25C29.2917 7.55417 27.9042 6.16667 26.2083 6.16667H4.625C2.92917 6.16667 1.54167 7.55417 1.54167 9.25V21.5833C1.54167 23.2792 2.92917 24.6667 4.625 24.6667H26.2083C27.9042 24.6667 29.2917 23.2792 29.2917 21.5833ZM26.2083 21.5833H4.625V9.25H26.2083V21.5833ZM15.4167 10.7917C12.8575 10.7917 10.7917 12.8575 10.7917 15.4167C10.7917 17.9758 12.8575 20.0417 15.4167 20.0417C17.9758 20.0417 20.0417 17.9758 20.0417 15.4167C20.0417 12.8575 17.9758 10.7917 15.4167 10.7917ZM35.4583 10.7917V27.75C35.4583 29.4458 34.0708 30.8333 32.375 30.8333H6.16667C6.16667 29.2917 6.16667 29.4458 6.16667 27.75H32.375V10.7917C34.0708 10.7917 33.9167 10.7917 35.4583 10.7917Z" fill="#FED600"/>
  </g>
  <defs>
    <clipPath id="clip0_33_718">
      <rect width="37" height="37" fill="white"/>
    </clipPath>
  </defs>
</svg>